#!OML:ASF E:\acrobat2\Project_11_07_03\Capture day 1\Session 1\Acrobat.ASF
:FULLY-SPECIFIED
:DEGREES
476
root 10.6391 6.18583 11.6785 -91.0901 4.02418 182.447
lowerback -2.48225 -1.93407 -0.334135
upperback -1.03744 -2.53995 4.7652
thorax 0.557474 -1.23956 5.02785
lowerneck -0.712616 -17.7973 -2.97095
upperneck -26.8283 -20.2946 23.0103
head -5.04237 -10.5446 8.10395
rclavicle 3.65764e-014 -5.92378e-014
rhumerus 34.1752 -27.1863 -27.9406
rradius 111.577
rwrist -9.24687
rhand -14.9996 -40.2754
rfingers 7.12502
rthumb 11.1651 -69.9583
lclavicle 3.65764e-014 -5.92378e-014
lhumerus 16.4739 40.5177 11.9624
lradius 108.637
lwrist 22.6504
lhand -3.9071 -28.6683
lfingers 7.12502
lthumb 21.8432 0.118896
rfemur 3.06363 26.1063 -13.5068
rtibia 12.8843
rfoot 15.0781 -31.4692
rtoes 56.981
lfemur -5.36481 -23.0015 2.00818
ltibia 18.3197
lfoot 34.7941 18.8044
ltoes 48.5375
477
root 10.6101 6.25303 11.6977 -91.7547 3.92102 182.737
lowerback -1.58196 -1.84772 -0.0944613
upperback -0.727136 -2.42665 4.58708
thorax 0.343974 -1.18849 4.733
lowerneck -0.786942 -17.7445 -2.6141
upperneck -27.041 -20.0884 23.406
head -5.11398 -10.4985 8.20085
rclavicle 1.59028e-015 4.72114e-014
rhumerus 34.0872 -27.205 -28.5335
rradius 111.839
rwrist -9.60398
rhand -15.2062 -40.2051
rfingers 7.12502
rthumb 10.9658 -69.8987
lclavicle 1.59028e-015 4.72114e-014
lhumerus 17.3625 40.6901 12.1813
lradius 108.274
lwrist 22.1665
lhand -3.73002 -28.627
lfingers 7.12502
lthumb 22.0132 0.140292
rfemur 2.32769 26.3271 -13.1637
rtibia 13.368
rfoot 18.8964 -30.4598
rtoes 54.1382
lfemur -4.01817 -22.9708 1.76218
ltibia 17.5856
lfoot 36.1468 17.2386
ltoes 47.2982
478
root 10.5828 6.30747 11.7184 -92.3526 3.78289 183.071
lowerback -0.838476 -1.76941 0.183955
upperback -0.463848 -2.31791 4.45817
thorax 0.172029 -1.13683 4.46239
lowerneck -0.747379 -17.6746 -2.40359
upperneck -27.1796 -19.9032 23.674
head -5.17803 -10.4496 8.28267
rclavicle -2.22639e-014 1.12313e-014
rhumerus 34.0354 -27.1181 -29.0331
rradius 112.042
rwrist -9.81206
rhand -15.4053 -40.1832
rfingers 7.12502
rthumb 10.7738 -69.8869
lclavicle -2.22639e-014 1.12313e-014
lhumerus 18.0273 40.7445 12.231
lradius 107.926
lwrist 21.7797
lhand -3.56112 -28.5211
lfingers 7.12502
lthumb 22.1754 0.226993
rfemur 1.87782 26.575 -12.7191
rtibia 13.3655
rfoot 21.6549 -29.2389
rtoes 51.4358
lfemur -2.82823 -22.8171 1.54539
ltibia 17.095
lfoot 37.1432 15.8738
ltoes 45.8991
479
root 10.5589 6.34978 11.742 -92.8491 3.64951 183.474
lowerback -0.263598 -1.68589 0.446919
upperback -0.257295 -2.19778 4.36448
thorax 0.0388204 -1.07736 4.23203
lowerneck -0.605449 -17.6024 -2.37825
upperneck -27.2433 -19.7549 23.8879
head -5.21493 -10.4076 8.37202
rclavicle -4.45278e-014 -1.55052e-014
rhumerus 34.0001 -26.9302 -29.4571
rradius 112.168
rwrist -9.789
rhand -15.5456 -40.1444
rfingers 7.12502
rthumb 10.6385 -69.8551
lclavicle -4.45278e-014 -1.55052e-014
lhumerus 18.5112 40.6963 12.1543
lradius 107.6
lwrist 21.4743
lhand -3.37748 -28.3875
lfingers 7.12502
lthumb 22.3516 0.339584
rfemur 1.65867 26.7552 -12.2492
rtibia 12.8579
rfoot 23.345 -27.9503
rtoes 49.2323
lfemur -1.83254 -22.5329 1.34139
ltibia 16.8591
lfoot 37.7972 14.6929
ltoes 44.2197
480
root 10.5403 6.38029 11.7691 -93.2073 3.53968 183.91
lowerback 0.115651 -1.60072 0.660647
upperback -0.114394 -2.07543 4.28704
thorax -0.04642 -1.01578 4.04044
lowerneck -0.423635 -17.5317 -2.49295
upperneck -27.2024 -19.6488 24.0529
head -5.20925 -10.3752 8.45525
rclavicle -4.77083e-015 -9.64106e-015
rhumerus 33.9444 -26.6601 -29.8392
rradius 112.227
rwrist -9.51074
rhand -15.6077 -40.067
rfingers 7.12502
rthumb 10.5786 -69.7808
lclavicle -4.77083e-015 -9.64106e-015
lhumerus 18.8873 40.5619 12.0017
lradius 107.294
lwrist 21.2017
lhand -3.19053 -28.2668
lfingers 7.12502
lthumb 22.5311 0.438556
rfemur 1.58409 26.7776 -11.783
rtibia 11.9517
rfoot 24.0757 -26.6417
rtoes 47.5465
lfemur -1.07367 -22.1352 1.16453
ltibia 16.836
lfoot 38.1543 13.6848
ltoes 42.1842
481
root 10.5267 6.39961 11.7979 -93.4074 3.49251 184.302
lowerback 0.287612 -1.53063 0.794254
upperback -0.0400154 -1.97827 4.19199
thorax -0.0808802 -0.967221 3.87012
lowerneck -0.258546 -17.4767 -2.65403
upperneck -27.0565 -19.5963 24.1759
head -5.16093 -10.3624 8.5169
rclavicle 4.77083e-015 -3.19049e-014
rhumerus 33.8539 -26.3458 -30.2124
rradius 112.225
rwrist -9.03095
rhand -15.6047 -39.9662
rfingers 7.12502
rthumb 10.5815 -69.6798
lclavicle 4.77083e-015 -3.19049e-014
lhumerus 19.231 40.3615 11.7934
lradius 106.985
lwrist 20.9392
lhand -3.03076 -28.1936
lfingers 7.12502
lthumb 22.6844 0.49307
rfemur 1.55223 26.5645 -11.3695
rtibia 10.8189
rfoot 24.2123 -25.1942
rtoes 45.7238
lfemur -0.561465 -21.7016 0.985624
ltibia 16.9242
lfoot 38.2248 12.8871
ltoes 39.7639
482
root 10.5187 6.408 11.8254 -93.4344 3.55121 184.604
lowerback 0.23478 -1.48387 0.790382
upperback -0.0331079 -1.92129 4.05621
thorax -0.0522245 -0.940202 3.72965
lowerneck -0.120645 -17.4417 -2.80528
upperneck -26.8329 -19.5899 24.2785
head -5.082 -10.3708 8.55867
rclavicle -3.02153e-014 1.58034e-014
rhumerus 33.7346 -26.0234 -30.5965
rradius 112.159
rwrist -8.44916
rhand -15.5823 -39.8578
rfingers 7.12502
rthumb 10.6031 -69.5703
lclavicle -3.02153e-014 1.58034e-014
lhumerus 19.5872 40.1186 11.5292
lradius 106.654
lwrist 20.7006
lhand -2.93662 -28.1592
lfingers 7.12502
lthumb 22.7748 0.516461
rfemur 1.44893 26.513 -11.0581
rtibia 9.67361
rfoot 23.5973 -23.793
rtoes 43.0445
lfemur -0.268394 -21.315 0.762835
ltibia 17.0132
lfoot 37.9472 12.5073
ltoes 37.2906
483
root 10.5152 6.40644 11.8511 -93.3282 3.68992 184.789
lowerback 0.00445324 -1.46858 0.68572
upperback -0.078867 -1.91344 3.8758
thorax 0.0268256 -0.939142 3.59581
lowerneck -0.0350185 -17.4317 -2.90705
upperneck -26.529 -19.6311 24.3787
head -4.96992 -10.4043 8.57818
rclavicle -1.11319e-014 -4.96962e-015
rhumerus 33.5944 -25.7208 -30.9997
rradius 112.041
rwrist -7.87782
rhand -15.58 -39.7877
rfingers 7.12502
rthumb 10.6053 -69.5001
lclavicle -1.11319e-014 -4.96962e-015
lhumerus 19.9818 39.8578 11.2064
lradius 106.29
lwrist 20.5147
lhand -2.93365 -28.1292
lfingers 7.12502
lthumb 22.7776 0.546113
rfemur 1.18918 26.2927 -10.8263
rtibia 8.75326
rfoot 22.7379 -22.4622
rtoes 39.056
lfemur -0.113154 -21.0164 0.516351
ltibia 17.008
lfoot 37.3162 12.6809
ltoes 35.3183
484
root 10.5142 6.39677 11.8753 -93.138 3.84668 184.807
lowerback -0.336333 -1.50328 0.565156
upperback -0.166601 -1.97511 3.66066
thorax 0.127999 -0.973622 3.43243
lowerneck -0.00326562 -17.4455 -2.9601
upperneck -26.1539 -19.7124 24.5017
head -4.8249 -10.4604 8.58386
rclavicle 2.54444e-014 -3.50855e-014
rhumerus 33.4464 -25.4635 -31.4087
rradius 111.889
rwrist -7.41528
rhand -15.6179 -39.7929
rfingers 7.12502
rthumb 10.5687 -69.5071
lclavicle 2.54444e-014 -3.50855e-014
lhumerus 20.416 39.6045 10.8125
lradius 105.883
lwrist 20.4238
lhand -3.01803 -28.0781
lfingers 7.12502
lthumb 22.6967 0.607124
rfemur 0.745432 25.8826 -10.6041
rtibia 8.26054
rfoot 21.5659 -21.4668
rtoes 33.9166
lfemur -0.0557002 -20.8339 0.310321
ltibia 16.854
lfoot 36.379 13.3372
ltoes 34.2929
485
root 10.515 6.38009 11.8993 -92.9325 3.97129 184.676
lowerback -0.715722 -1.58521 0.488666
upperback -0.27138 -2.09933 3.42562
thorax 0.234111 -1.03942 3.22194
lowerneck -0.0114891 -17.4756 -2.99256
upperneck -25.7242 -19.8232 24.6462
head -4.65252 -10.5314 8.58214
rclavicle -4.13472e-014 2.0276e-014
rhumerus 33.3064 -25.2727 -31.8031
rradius 111.713
rwrist -7.12994
rhand -15.7075 -39.8835
rfingers 7.12502
rthumb 10.4823 -69.6022
lclavicle -4.13472e-014 2.0276e-014
lhumerus 20.8741 39.3832 10.3393
lradius 105.447
lwrist 20.4648
lhand -3.16517 -27.9914
lfingers 7.12502
lthumb 22.5554 0.711062
rfemur 0.187566 25.3508 -10.3295
rtibia 8.19974
rfoot 20.1534 -21.0798
rtoes 28.2245
lfemur -0.0399523 -20.7519 0.183431
ltibia 16.5762
lfoot 35.1944 14.2021
ltoes 34.2629
